<?xml version="1.0" encoding="UTF-8"?>
<svg width="24" height="24" viewBox="0 0 24 24" fill="none" xmlns="http://www.w3.org/2000/svg">
    <path d="M22 16.92V19.92C22 20.4704 21.7893 20.9991 21.4142 21.3742C21.0391 21.7493 20.5104 21.96 19.96 21.96C10.59 21.96 3 14.37 3 5C3 4.44956 3.21071 3.92086 3.58579 3.54579C3.96086 3.17071 4.48957 2.96 5.04 2.96H8.04C8.59043 2.96 9.11914 3.17071 9.49422 3.54579C9.86929 3.92086 10.08 4.44956 10.08 5C10.08 6.49 10.28 7.93 10.67 9.29C10.78 9.74 10.73 10.2177 10.5334 10.6351C10.3368 11.0525 9.99807 11.3889 9.58 11.58L7.58 12.58C9.24974 15.8569 11.9431 18.5503 15.22 20.22L16.22 18.22C16.4111 17.8019 16.7475 17.4632 17.1649 17.2666C17.5823 17.07 18.06 17.02 18.51 17.13C19.87 17.52 21.31 17.72 22.8 17.72C23.3504 17.72 23.8791 17.9307 24.2542 18.3058C24.6293 18.6809 24.84 19.2096 24.84 19.76V22.76C24.84 23.3104 24.6293 23.8391 24.2542 24.2142C23.8791 24.5893 23.3504 24.8 22.8 24.8C13.43 24.8 5.84 17.21 5.84 7.84" stroke="#4F46E5" stroke-width="2" stroke-linecap="round" stroke-linejoin="round"/>
</svg>